<svg width="46" height="46" viewBox="0 0 46 46" fill="none" xmlns="http://www.w3.org/2000/svg">
<path opacity="0.4" d="M45.1314 22.7437C45.1314 35.1084 35.1084 45.1314 22.7437 45.1314C10.3789 45.1314 0.355957 35.1084 0.355957 22.7437C0.355957 10.3812 10.3789 0.355957 22.7437 0.355957C35.1084 0.355957 45.1314 10.3812 45.1314 22.7437" fill="white"/>
<path d="M31.3849 15.3668L27.7581 26.8293C27.6238 27.2994 27.2432 27.68 26.773 27.8166L15.3553 31.3964C14.5941 31.6449 13.8553 30.9038 14.1016 30.1427L17.6836 18.6578C17.818 18.1876 18.1985 17.8294 18.6687 17.6727L30.1312 14.0907C30.9148 13.8444 31.6312 14.5832 31.3849 15.3668" fill="white"/>
</svg>
