<svg width="24" height="29" viewBox="0 0 24 29" fill="none" xmlns="http://www.w3.org/2000/svg">
<path d="M3.0177 24.9181C4.0789 26.4343 5.5299 28.5076 7.40199 28.5076V28.504H7.49737C8.21201 28.459 8.91074 28.2734 9.55349 27.9578H9.57148C10.385 27.563 11.2768 27.356 12.181 27.3522C13.047 27.3616 13.9 27.5639 14.678 27.9443H14.6834C15.3335 28.2718 16.0487 28.4495 16.7764 28.4644H16.8826C18.766 28.4365 19.9699 26.8654 21.2297 24.9703C22.0945 23.7325 22.7648 22.3697 23.2174 20.9292V20.922C22.5082 20.6234 21.8602 20.1963 21.3062 19.6622C20.6943 19.0848 20.2086 18.387 19.8796 17.6127C19.5507 16.8384 19.3857 16.0043 19.3949 15.1631C19.4127 14.0712 19.7046 13.0013 20.2438 12.0516C20.7829 11.1019 21.552 10.303 22.4805 9.72808C21.8886 8.88401 21.1084 8.18929 20.2016 7.69889C19.2949 7.20849 18.2864 6.93587 17.256 6.90261C17.0842 6.88731 16.9303 6.87921 16.7989 6.87921C15.6622 6.95063 14.5487 7.2332 13.5154 7.71245H13.4938C12.9624 7.97008 12.392 8.13792 11.8058 8.20916C11.1876 8.14367 10.5859 7.9691 10.0286 7.69356H10.0088C9.1156 7.26963 8.14948 7.0207 7.16263 6.9602H7.08165C5.8804 6.99798 4.70946 7.34654 3.6831 7.97185C2.65673 8.59716 1.81001 9.47787 1.22555 10.528C0.0473909 12.8428 -0.294651 15.4937 0.257329 18.0317C0.69233 20.4889 1.6297 22.8299 3.01081 24.9082L3.0177 24.9181Z" fill="white"/>
<path d="M11.5826 6.57057C11.6753 6.57883 11.7684 6.58244 11.8616 6.58137C12.6255 6.5428 13.3728 6.34369 14.0547 5.99702C14.7365 5.65034 15.3377 5.16389 15.819 4.56934C16.8857 3.29643 17.4098 1.65555 17.2785 0C15.6558 0.169548 14.1566 0.944529 13.0799 2.17039C12.0172 3.38059 11.4786 4.96333 11.5826 6.57057Z" fill="white"/>
</svg>
