<svg width="24" height="26" viewBox="0 0 24 26" fill="none" xmlns="http://www.w3.org/2000/svg">
<path d="M17.2367 16.7389L13.634 13.1414L1.71241 25.2082C1.82637 25.1653 1.93684 25.1137 2.04282 25.0538L17.2367 16.7389Z" fill="white"/>
<path d="M0.00887499 1.49767C0.0150509 2.9696 0.111807 22.5926 0.121071 23.8299C0.0942242 24.0875 0.131272 24.3477 0.228938 24.5876C0.326604 24.8274 0.481878 25.0395 0.681024 25.2051L13.1132 12.6226L0.62647 0.14925C0.410972 0.296921 0.23967 0.500396 0.130885 0.737908C0.0221012 0.97542 -0.0200726 1.23804 0.00887499 1.49767Z" fill="white"/>
<path d="M17.9047 8.82028L14.1508 12.6195L17.9088 16.3714L23.074 13.5439C23.6916 13.2031 24.3483 12.3344 23.074 11.6396L17.9047 8.82028Z" fill="white"/>
<path d="M2.04282 0.165721C1.87783 0.0783121 1.69812 0.0221292 1.51272 0L13.631 12.0997L17.2336 8.45384L2.04282 0.165721Z" fill="white"/>
</svg>
